<svg xmlns="http://www.w3.org/2000/svg" viewBox="0 0 96 96" role="img" aria-label="林夏头像">
  <circle cx="48" cy="48" r="45" fill="#e8fbf5" stroke="#2f9f93" stroke-width="3"/>
  <path d="M25 43c2-19 13-29 27-27 13 2 21 12 20 27l-4 19H29z" fill="#4b3128"/>
  <circle cx="48" cy="50" r="23" fill="#ffd9be"/>
  <path d="M27 46c8-2 15-8 19-16 6 9 14 13 24 14-1-16-11-25-23-25-12 0-20 9-20 27z" fill="#5b3a2f"/>
  <circle cx="39" cy="51" r="3" fill="#282421"/>
  <circle cx="58" cy="51" r="3" fill="#282421"/>
  <path d="M40 64c5 4 11 4 16 0" fill="none" stroke="#b65f50" stroke-width="3" stroke-linecap="round"/>
  <path d="M29 86c3-14 10-21 19-21s16 7 19 21" fill="#8a6a50"/>
  <path d="M39 70h18l-5 8h-8z" fill="#fff7ec"/>
</svg>
