<svg xmlns="http://www.w3.org/2000/svg" viewBox="0 0 96 96" role="img" aria-label="小满头像">
  <circle cx="48" cy="48" r="45" fill="#f3f8e9" stroke="#7aa75a" stroke-width="3"/>
  <path d="M25 45c1-18 10-28 24-28 13 0 22 10 23 28l-4 19H29z" fill="#6a4a36"/>
  <circle cx="48" cy="51" r="23" fill="#ffd7bf"/>
  <path d="M27 45c9-1 17-6 23-15 6 9 12 13 20 14-2-16-10-25-22-25-13 0-21 9-21 26z" fill="#7b563e"/>
  <circle cx="39" cy="52" r="3" fill="#282421"/>
  <circle cx="58" cy="52" r="3" fill="#282421"/>
  <path d="M41 65c4 4 10 4 14 0" fill="none" stroke="#b65f50" stroke-width="3" stroke-linecap="round"/>
  <path d="M29 86c3-14 10-21 19-21s16 7 19 21" fill="#7aa75a"/>
  <path d="M38 70h20l-10 10z" fill="#fff7ec"/>
</svg>
