<svg xmlns="http://www.w3.org/2000/svg" viewBox="0 0 96 96" role="img" aria-label="阿哲头像">
  <circle cx="48" cy="48" r="45" fill="#fff2ef" stroke="#e3725d" stroke-width="3"/>
  <path d="M25 42c3-18 15-27 29-24 11 2 18 10 18 25-9-8-18-11-27-7-7 3-13 5-20 6z" fill="#24302f"/>
  <circle cx="48" cy="51" r="23" fill="#ffd6bd"/>
  <path d="M28 43c8 0 14-5 20-10 7 5 14 8 22 9-1-15-10-23-23-23s-20 8-19 24z" fill="#2d3836"/>
  <circle cx="39" cy="52" r="3" fill="#282421"/>
  <circle cx="58" cy="52" r="3" fill="#282421"/>
  <path d="M41 65c5 3 10 3 15 0" fill="none" stroke="#a4574b" stroke-width="3" stroke-linecap="round"/>
  <path d="M28 86c3-14 11-22 20-22s17 8 20 22" fill="#ffffff"/>
  <path d="M46 68h5v14h-5zM41 73h15v5H41z" fill="#e3725d"/>
  <path d="M33 82h30" stroke="#ced8d7" stroke-width="3" stroke-linecap="round"/>
</svg>
