<svg xmlns="http://www.w3.org/2000/svg" viewBox="0 0 1200 780" role="img" aria-label="AI 小镇地图">
  <defs>
    <linearGradient id="grass" x1="0" x2="1" y1="0" y2="1">
      <stop stop-color="#dce9b8"/>
      <stop offset="1" stop-color="#9fc27c"/>
    </linearGradient>
    <linearGradient id="path" x1="0" x2="1">
      <stop stop-color="#d7c6aa"/>
      <stop offset="1" stop-color="#bba382"/>
    </linearGradient>
    <filter id="shadow" x="-20%" y="-20%" width="140%" height="140%">
      <feDropShadow dx="0" dy="14" stdDeviation="12" flood-color="#5a4a32" flood-opacity=".2"/>
    </filter>
  </defs>
  <rect width="1200" height="780" fill="url(#grass)"/>
  <circle cx="1010" cy="126" r="140" fill="#7fa866" opacity=".36"/>
  <circle cx="1110" cy="656" r="180" fill="#e4a747" opacity=".32"/>
  <circle cx="138" cy="666" r="160" fill="#6ea05d" opacity=".3"/>
  <path d="M0 470C224 380 348 390 522 454c194 72 360 67 678-78v138c-282 128-489 146-703 67C317 515 206 519 0 608z" fill="url(#path)" opacity=".88"/>
  <path d="M544 0c-80 143-105 276-78 400 21 99 5 211-52 380h160c42-155 49-268 22-382-28-119 0-234 98-398z" fill="url(#path)" opacity=".88"/>
  <g filter="url(#shadow)">
    <rect x="76" y="92" width="316" height="220" rx="18" fill="#a66a3d"/>
    <polygon points="72,112 236,22 402,112" fill="#71452b"/>
    <rect x="108" y="130" width="252" height="142" fill="#c98a54"/>
    <rect x="134" y="163" width="54" height="72" fill="#384b4c"/>
    <rect x="210" y="163" width="54" height="72" fill="#384b4c"/>
    <rect x="286" y="163" width="44" height="109" fill="#6b3e29"/>
    <rect x="110" y="108" width="250" height="36" fill="#f3e6c8"/>
    <text x="235" y="133" text-anchor="middle" font-size="34" font-family="sans-serif" font-weight="800" fill="#6b3e29">咖啡馆</text>
    <rect x="104" y="282" width="284" height="34" fill="#e8f0d0"/>
    <path d="M104 282h284l-16 54H120z" fill="#f5e8b4"/>
  </g>
  <g filter="url(#shadow)">
    <rect x="814" y="86" width="276" height="246" rx="18" fill="#edf0ea"/>
    <polygon points="792,108 950,24 1118,108" fill="#617587"/>
    <rect x="844" y="136" width="218" height="160" fill="#f7f4ea"/>
    <rect x="864" y="168" width="56" height="80" fill="#8ca8b7"/>
    <rect x="984" y="168" width="56" height="118" fill="#6b7c86"/>
    <rect x="927" y="134" width="58" height="58" rx="10" fill="#fff"/>
    <path d="M951 144h12v38h-12zM938 157h38v12h-38z" fill="#cf5546"/>
    <text x="952" y="318" text-anchor="middle" font-size="34" font-family="sans-serif" font-weight="800" fill="#51636d">诊所</text>
  </g>
  <g filter="url(#shadow)">
    <rect x="124" y="516" width="300" height="206" rx="18" fill="#c38b56"/>
    <polygon points="108,536 268,444 440,536" fill="#506d7e"/>
    <rect x="154" y="556" width="240" height="132" fill="#e8d0a7"/>
    <rect x="184" y="584" width="48" height="78" fill="#3f5f72"/>
    <rect x="254" y="584" width="48" height="96" fill="#71452b"/>
    <rect x="326" y="584" width="44" height="78" fill="#3f5f72"/>
    <text x="274" y="548" text-anchor="middle" font-size="34" font-family="sans-serif" font-weight="800" fill="#634329">图书馆</text>
  </g>
  <g>
    <circle cx="610" cy="420" r="88" fill="#d8c39d"/>
    <circle cx="610" cy="420" r="64" fill="#8ec9d0"/>
    <circle cx="610" cy="420" r="43" fill="#eef7f6"/>
    <path d="M610 349v76" stroke="#ffffff" stroke-width="8" stroke-linecap="round"/>
    <circle cx="610" cy="350" r="15" fill="#ffffff"/>
  </g>
  <g fill="#4d7d4f" opacity=".9">
    <circle cx="492" cy="80" r="44"/>
    <circle cx="548" cy="96" r="54"/>
    <circle cx="618" cy="84" r="48"/>
    <circle cx="698" cy="690" r="52"/>
    <circle cx="762" cy="710" r="42"/>
    <circle cx="46" cy="392" r="46"/>
    <circle cx="1116" cy="420" r="58"/>
  </g>
  <g stroke="#6b573d" stroke-width="10" stroke-linecap="round">
    <path d="M462 118v70M564 138v78M704 686v70M84 390v72M1094 426v78"/>
  </g>
  <g fill="#f7edcf" stroke="#80694a" stroke-width="5">
    <rect x="726" y="530" width="210" height="94" rx="10"/>
    <path d="M754 566h154M754 594h122"/>
  </g>
  <g fill="#e8c773">
    <circle cx="524" cy="560" r="18"/>
    <circle cx="1004" cy="520" r="16"/>
    <circle cx="392" cy="390" r="14"/>
    <circle cx="724" cy="302" r="13"/>
  </g>
  <g stroke="#684f35" stroke-width="8" stroke-linecap="round">
    <path d="M130 442h98M151 422v44M207 422v44"/>
    <path d="M964 478h96M986 458v42M1042 458v42"/>
    <path d="M348 696h92M370 676v42M420 676v42"/>
  </g>
</svg>
